<svg width="130" height="130" viewBox="0 0 130 130" fill="none" xmlns="http://www.w3.org/2000/svg">
<rect width="130" height="130" rx="16" fill="#343A40"/>
<rect x="15" y="15" width="100" height="100" rx="50" fill="#86B1F9"/>
<path d="M115 48C110 50.9445 106.823 61.0205 101.823 62.2288C96.8228 63.4373 95 54.6867 90 54.042C85 53.3973 82.6098 64.1017 77.6098 63.4538C72.6098 62.806 69.5974 47.8846 64.5974 49.6962C59.5974 51.5075 55.2672 71.301 50.2672 75.2327C45.2672 79.1644 42.4195 70.5677 37.4195 74.2904C32.4195 78.0132 32.5 83.8569 27.5 89.14C22.5 94.4232 20 97.6871 15 96.8771" stroke="#343A40" stroke-width="10" stroke-linecap="round"/>
</svg>
